<svg xmlns="http://www.w3.org/2000/svg" xmlns:xlink="http://www.w3.org/1999/xlink" viewBox="0 0 750.1 500"><defs><style>.cls-1{fill:#200c4c;}.cls-2{fill:url(#linear-gradient);}.cls-3{fill:#5e1791;}.cls-4{fill:#5c20ef;}.cls-16,.cls-18,.cls-23,.cls-26,.cls-29,.cls-32,.cls-35,.cls-39,.cls-5,.cls-9{fill:none;}.cls-5{stroke:#9d6aef;}.cls-16,.cls-23,.cls-26,.cls-32,.cls-35,.cls-39,.cls-5{stroke-linecap:round;stroke-linejoin:round;}.cls-16,.cls-26,.cls-39,.cls-5{stroke-width:2px;}.cls-6{fill:#eeeaff;}.cls-7{fill:#3f006d;}.cls-8{fill:#cdc8ed;}.cls-9{stroke:#cdc8ed;}.cls-18,.cls-29,.cls-9{stroke-miterlimit:10;}.cls-10{fill:#dfefed;}.cls-11{fill:#4218c6;}.cls-12{fill:#2c1589;}.cls-13{fill:#fce3ff;}.cls-14{fill:#9d6aef;}.cls-15{fill:#bb9df4;}.cls-16{stroke:#ba42d3;}.cls-17{fill:#fa43a1;}.cls-18{stroke:#fa43a1;}.cls-19{fill:#b8d3cf;}.cls-20{fill:#6f0082;}.cls-21{fill:#bc2b7b;}.cls-22{fill:#8c3368;}.cls-23{stroke:#f9b2dd;}.cls-24{fill:#481ad8;}.cls-25{fill:#2f10b2;}.cls-26{stroke:#be92f7;}.cls-27{fill:#4c127f;}.cls-28{fill:#8252dd;}.cls-29{stroke:#8a69ed;}.cls-30{fill:#8a69ed;}.cls-31{fill:#7a4cd3;}.cls-32{stroke:#9677f7;}.cls-33{fill:#f9b2dd;}.cls-34{fill:#b73080;}.cls-35{stroke:#a08eef;}.cls-36{fill:#a08eef;}.cls-37{fill:#791fad;}.cls-38{fill:#42116d;}.cls-39{stroke:#f702e5;}.cls-40{fill:#1e9dc5;}.cls-41{fill:#106b7a;}.cls-42{fill:#28bee0;}</style><linearGradient id="linear-gradient" x1="667.72" y1="-82.29" x2="82.29" y2="503.15" gradientUnits="userSpaceOnUse"><stop offset="0" stop-color="#5d0982" stop-opacity="0.7"/><stop offset="1" stop-color="#5083c2" stop-opacity="0"/></linearGradient></defs><title>flat illustration</title><g id="BACKGROUND"><rect class="cls-1" width="750" height="500"/></g><g id="OBJECTS"><rect class="cls-2" width="750.01" height="420.86"/><rect y="419.75" width="523.5" height="80.25"/><rect class="cls-3" x="261.51" y="214.68" width="50.99" height="73.56"/><rect class="cls-3" x="416.17" y="144.46" width="77.92" height="51.09" rx="10.79"/><rect class="cls-4" x="96.67" y="77" width="176.67" height="299.28" rx="10.76"/><line class="cls-5" x1="273.33" y1="87.76" x2="273.33" y2="365.51"/><line class="cls-5" x1="96.67" y1="200" x2="96.67" y2="105.52"/><line class="cls-5" x1="113.55" y1="77" x2="253.86" y2="77"/><rect class="cls-6" x="104.14" y="86" width="161.71" height="284.3" rx="10.76"/><path class="cls-7" d="M255.09,86H114.91a10.77,10.77,0,0,0-10.77,10.76v5.57H265.86V96.76A10.77,10.77,0,0,0,255.09,86Z"/><rect class="cls-8" x="110.38" y="113" width="112.96" height="5.33"/><rect class="cls-8" x="110.38" y="123.67" width="112.96" height="5.33"/><rect class="cls-8" x="201.5" y="142.16" width="52.36" height="85.99"/><rect class="cls-8" x="201.5" y="239.5" width="52.36" height="85.99"/><rect class="cls-8" x="230.67" y="113" width="23.2" height="16"/><rect class="cls-9" x="113.55" y="142.16" width="79.78" height="85.99"/><path class="cls-8" d="M133.19,228.15h42.05a21,21,0,0,0-11.44-18.7,17,17,0,1,0-19.18,0A21,21,0,0,0,133.19,228.15Z"/><rect class="cls-10" x="208" y="156.03" width="34.27" height="2.76"/><rect class="cls-10" x="208" y="188.85" width="34.27" height="2.76"/><rect class="cls-10" x="208" y="194.89" width="34.27" height="2.76"/><rect class="cls-10" x="208" y="201.54" width="34.27" height="2.76"/><rect class="cls-10" x="208" y="207.58" width="34.27" height="2.76"/><polygon class="cls-11" points="497.23 372.74 490.31 347 483.5 340.39 483.5 321.95 434.77 321.95 434.77 340.57 434.73 340.33 427.85 347 420.94 372.74 376.6 386 434.77 386 442.69 386 475.48 386 483.5 386 541.56 386 497.23 372.74"/><polygon class="cls-12" points="434.77 331.1 483.5 340.39 483.5 319.1 434.77 319.1 434.77 331.1"/><path class="cls-4" d="M459.35,177c-59.7,0-115.57-2.53-163.38-6.92A11,11,0,0,0,284,181V313.07A11,11,0,0,0,294,324c48.25,4.51,104.85,7.11,165.4,7.11s117.16-2.6,165.41-7.11a11,11,0,0,0,9.93-10.92V181a11,11,0,0,0-12-10.92C574.93,174.45,519.06,177,459.35,177Z"/><path class="cls-5" d="M284,313.07A11,11,0,0,0,294,324"/><path class="cls-5" d="M622.74,170.06C574.93,174.45,519.06,177,459.35,177"/><path class="cls-13" d="M459.17,184.65c-57.22,0-110.77-2.24-156.62-6.16a11,11,0,0,0-11.88,10.93V305.33a11,11,0,0,0,10,10.92c46.28,4,100.51,6.32,158.51,6.32s112.23-2.31,158.5-6.32a11,11,0,0,0,10-10.92V189.42a11,11,0,0,0-11.88-10.93C569.93,182.41,516.38,184.65,459.17,184.65Z"/><path class="cls-14" d="M455.13,300.33H361.85l-11.34,19.4c33.79,1.83,70.39,2.84,108.66,2.84,34.85,0,68.32-.84,99.54-2.37l-11.62-19.87Z"/><path class="cls-14" d="M563,202.75h.16c1.31,0,32.1-1.06,51.25-4.58a5,5,0,0,0-1.81-9.84c-18.4,3.39-49.44,4.41-49.75,4.42a5,5,0,0,0,.15,10Z"/><path class="cls-14" d="M612.59,205.26c-18.4,3.39-49.44,4.41-49.75,4.42a5,5,0,0,0,.15,10h.16c1.31,0,32.1-1,51.25-4.58a5,5,0,1,0-1.81-9.83Z"/><path class="cls-15" d="M298.15,201v79.78a15,15,0,0,0,13.63,15c5.9.54,13.27,1,21.19,1a15,15,0,0,0,15-15V202a15,15,0,0,0-14.66-15c-5.46-.13-12-.4-19-.95A15,15,0,0,0,298.15,201Z"/><path class="cls-16" d="M565.5,308h0a2.5,2.5,0,0,1-2.5-2.5V241a2.5,2.5,0,0,1,2.5-2.5h0A2.5,2.5,0,0,1,568,241v64.5A2.5,2.5,0,0,1,565.5,308Z"/><path class="cls-16" d="M576.5,304.5h0A2.5,2.5,0,0,1,574,302V237.5a2.5,2.5,0,0,1,2.5-2.5h0a2.5,2.5,0,0,1,2.5,2.5V302A2.5,2.5,0,0,1,576.5,304.5Z"/><path class="cls-17" d="M496.38,282.5H410.75a11,11,0,0,1-11-11h0a11,11,0,0,1,11-11h85.63a11,11,0,0,1,11,11h0A11,11,0,0,1,496.38,282.5Z"/><path class="cls-17" d="M496.38,246H410.75a11,11,0,0,1-11-11h0a11,11,0,0,1,11-11h85.63a11,11,0,0,1,11,11h0A11,11,0,0,1,496.38,246Z"/><path class="cls-17" d="M374.73,208.25l-3.41-2.94,2.94-3.4a.79.79,0,0,0-.08-1.11.78.78,0,0,0-1.11.08l-2.94,3.4-3.4-2.93a.78.78,0,0,0-1.11.08.79.79,0,0,0,.08,1.11l3.41,2.93-2.94,3.41a.78.78,0,0,0,1.19,1l2.94-3.4,3.4,2.94a.79.79,0,0,0,1.11-.09A.78.78,0,0,0,374.73,208.25Z"/><path class="cls-17" d="M550.34,282.27l-3.4-2.94,2.94-3.4a.79.79,0,0,0-.09-1.11.78.78,0,0,0-1.1.08l-2.94,3.41-3.4-2.94a.79.79,0,0,0-1.11.08.78.78,0,0,0,.08,1.11l3.4,2.94-2.93,3.4a.78.78,0,0,0,.08,1.11.79.79,0,0,0,1.11-.08l2.93-3.41,3.41,2.94a.78.78,0,0,0,1-1.19Z"/><path class="cls-18" d="M532.67,205.94a5.34,5.34,0,1,1-5.33-5.33A5.34,5.34,0,0,1,532.67,205.94Z"/><path class="cls-18" d="M393.77,247.91a3.55,3.55,0,1,1-3.55-3.56A3.55,3.55,0,0,1,393.77,247.91Z"/><path class="cls-18" d="M370.22,280.24a5.61,5.61,0,1,1-5.61-5.61A5.62,5.62,0,0,1,370.22,280.24Z"/><rect class="cls-18" x="511.33" y="246.14" width="8.19" height="8.19"/><rect class="cls-18" x="409.33" y="193.25" width="7.36" height="7.36"/><polygon class="cls-18" points="366.68 235.83 359 235.83 362.84 228.15 366.68 235.83"/><polygon class="cls-18" points="552.83 231.99 543.67 231.99 548.25 222.83 552.83 231.99"/><path class="cls-17" d="M466.09,182.56H438.37a11.81,11.81,0,0,1-11.81-11.81h0a11.81,11.81,0,0,1,11.81-11.81h27.72a11.81,11.81,0,0,1,11.81,11.81h0A11.81,11.81,0,0,1,466.09,182.56Z"/><circle class="cls-10" cx="441.33" cy="170.75" r="7"/><path class="cls-10" d="M462.63,172.91a4.84,4.84,0,1,1-4.84-4.83A4.84,4.84,0,0,1,462.63,172.91Z"/><path class="cls-4" d="M581.67,13H305.51a11,11,0,0,0-10.8,12.84l20.86,120.07a11,11,0,0,0,10.8,9.09H602.53a11,11,0,0,0,10.8-12.84L592.47,22.09A11,11,0,0,0,581.67,13Z"/><path class="cls-10" d="M577.76,18.58H311.61a11,11,0,0,0-10.79,12.91l19.56,108.9a11,11,0,0,0,10.79,9H596.49a11,11,0,0,0,10.8-12.83L588.57,27.69A11,11,0,0,0,577.76,18.58Z"/><polygon class="cls-19" points="330.5 142.16 596.65 142.16 590 106.54 323.84 106.54 330.5 142.16"/><polygon class="cls-19" points="504.58 102.45 589.23 102.45 587.71 94.31 503.05 94.31 504.58 102.45"/><polygon class="cls-19" points="501.53 86.17 586.19 86.17 578.82 46.78 494.17 46.78 501.53 86.17"/><polygon class="cls-19" points="490.9 29.33 493.19 41.53 577.84 41.53 575.56 29.33 490.9 29.33"/><path class="cls-19" d="M478.92,27.87,308.67,26.52l13.17,73.54,170.25,1.35Zm12,72.53L322.66,99.07,309.85,27.53,478.1,28.86Z"/><line class="cls-5" x1="294.71" y1="25.84" x2="315.57" y2="145.91"/><line class="cls-5" x1="613.33" y1="142.16" x2="592.47" y2="22.09"/><path class="cls-17" d="M281,379.63H268.28V325.32a4.75,4.75,0,0,0-4.75-4.75h0a4.75,4.75,0,0,0-4.75,4.75v54.31H246a3.19,3.19,0,0,0,0,6.37h35a3.19,3.19,0,1,0,0-6.37Z"/><path class="cls-20" d="M274.42,323.69a15.49,15.49,0,0,0-22.23,0c-7.44,8.11-6.17,23.87-6.11,24.53a1.63,1.63,0,0,0,1.63,1.5h.14a1.64,1.64,0,0,0,1.49-1.77c0-.15-1.22-15,5.26-22a12.24,12.24,0,0,1,17.41,0c6.47,7.05,5.28,21.9,5.27,22.05a1.64,1.64,0,0,0,1.49,1.77h.14a1.64,1.64,0,0,0,1.63-1.5C280.59,347.56,281.86,331.8,274.42,323.69Z"/><path class="cls-17" d="M247.71,368.29h0a6.28,6.28,0,0,1-6.29-6.29V348.44a6.29,6.29,0,0,1,6.29-6.3h0a6.3,6.3,0,0,1,6.29,6.3V362A6.29,6.29,0,0,1,247.71,368.29Z"/><rect x="237.98" y="349.5" width="3.44" height="11.44"/><path class="cls-17" d="M279.35,368.29h0a6.29,6.29,0,0,0,6.29-6.29V348.44a6.3,6.3,0,0,0-6.29-6.3h0a6.29,6.29,0,0,0-6.29,6.3V362A6.28,6.28,0,0,0,279.35,368.29Z"/><rect x="285.64" y="349.5" width="3.44" height="11.44" transform="translate(574.72 710.44) rotate(180)"/><rect class="cls-17" x="312.5" y="376.89" width="201" height="9.11"/><path class="cls-17" d="M321,370.3h9a2.43,2.43,0,0,1,2.43,2.43v1.93a0,0,0,0,1,0,0H318.52a0,0,0,0,1,0,0v-1.93A2.43,2.43,0,0,1,321,370.3Z"/><rect class="cls-21" x="321.48" y="374.67" width="7.92" height="2.23"/><path class="cls-17" d="M335.79,370.3h9a2.43,2.43,0,0,1,2.43,2.43v1.93a0,0,0,0,1,0,0H333.35a0,0,0,0,1,0,0v-1.93A2.43,2.43,0,0,1,335.79,370.3Z"/><rect class="cls-21" x="336.31" y="374.67" width="7.92" height="2.23"/><path class="cls-17" d="M350.45,370.3h9a2.43,2.43,0,0,1,2.43,2.43v1.93a0,0,0,0,1,0,0H348a0,0,0,0,1,0,0v-1.93A2.43,2.43,0,0,1,350.45,370.3Z"/><rect class="cls-21" x="350.98" y="374.67" width="7.92" height="2.23"/><path class="cls-17" d="M365.29,370.3h9a2.43,2.43,0,0,1,2.43,2.43v1.93a0,0,0,0,1,0,0H362.85a0,0,0,0,1,0,0v-1.93A2.43,2.43,0,0,1,365.29,370.3Z"/><rect class="cls-21" x="365.81" y="374.67" width="7.92" height="2.23"/><path class="cls-17" d="M380.43,370.3h9a2.43,2.43,0,0,1,2.43,2.43v1.93a0,0,0,0,1,0,0H378a0,0,0,0,1,0,0v-1.93A2.43,2.43,0,0,1,380.43,370.3Z"/><rect class="cls-21" x="380.96" y="374.67" width="7.92" height="2.23"/><path class="cls-17" d="M454.6,370.3h9a2.43,2.43,0,0,1,2.43,2.43v1.93a0,0,0,0,1,0,0H452.17a0,0,0,0,1,0,0v-1.93A2.43,2.43,0,0,1,454.6,370.3Z"/><rect class="cls-21" x="455.13" y="374.67" width="7.92" height="2.23"/><path class="cls-17" d="M469.26,370.3h9a2.43,2.43,0,0,1,2.43,2.43v1.93a0,0,0,0,1,0,0H466.83a0,0,0,0,1,0,0v-1.93A2.43,2.43,0,0,1,469.26,370.3Z"/><rect class="cls-21" x="469.79" y="374.67" width="7.92" height="2.23"/><path class="cls-17" d="M484.1,370.3h9a2.43,2.43,0,0,1,2.43,2.43v1.93a0,0,0,0,1,0,0H481.67a0,0,0,0,1,0,0v-1.93A2.43,2.43,0,0,1,484.1,370.3Z"/><rect class="cls-21" x="484.63" y="374.67" width="7.92" height="2.23"/><path class="cls-17" d="M498.93,370.3h9a2.43,2.43,0,0,1,2.43,2.43v1.93a0,0,0,0,1,0,0H496.5a0,0,0,0,1,0,0v-1.93A2.43,2.43,0,0,1,498.93,370.3Z"/><rect class="cls-21" x="499.46" y="374.67" width="7.92" height="2.23"/><rect class="cls-21" x="418.46" y="374.67" width="7.92" height="2.23"/><path class="cls-17" d="M446,370.3H397.86a4.37,4.37,0,0,0-4.36,4.37h56.83A4.37,4.37,0,0,0,446,370.3Z"/><path class="cls-17" d="M545.75,386l5.25-9.11,19-6.59s35.5-5.05,35.5,15.7Z"/><path class="cls-22" d="M581.93,369.83c-2.43.46-15.26,3.5-15.26,16.17H605.5C605.5,373.32,592.25,370.28,581.93,369.83Z"/><line class="cls-23" x1="551" y1="376.89" x2="570" y2="370.3"/><path class="cls-23" d="M566.67,386s-1.55-12.34,15.26-16.17"/><rect class="cls-24" y="411" width="750" height="8.75"/><rect class="cls-4" y="386" width="750" height="25"/><polygon class="cls-25" points="0 411 750 411 0 419.75 0 411"/><line class="cls-26" x1="312.5" y1="386" x2="538" y2="386"/><rect class="cls-3" x="519" y="419.75" width="231" height="80.25"/><rect class="cls-14" x="549" y="442.68" width="188" height="6.65"/><rect class="cls-14" x="549" y="468.69" width="188" height="6.65"/><polygon class="cls-27" points="750 500 519 419.75 519 419.75 750 419.75 750 500"/><polygon class="cls-28" points="585.01 442.68 604.14 449.33 737 449.33 737 442.68 585.01 442.68"/><polygon class="cls-28" points="679.01 475.34 737 475.34 737 468.69 659.88 468.69 679.01 475.34"/><line class="cls-5" x1="519" y1="431.5" x2="519" y2="493.5"/><rect class="cls-29" x="549" y="453.63" width="49" height="10.71"/><rect class="cls-29" x="549" y="481.65" width="49" height="10.71"/><path class="cls-30" d="M597.85,410.47l-12-19A1,1,0,0,0,585,391H298.15a1,1,0,0,0-.85.48l-11.65,19a1,1,0,0,0,.33,1.37,1,1,0,0,0,1.37-.33L298.71,393H584.46l11.69,18.53a1,1,0,1,0,1.7-1.06Z"/><rect class="cls-20" x="649.5" y="157.41" width="100.5" height="228.59"/><circle class="cls-10" cx="701" cy="299.76" r="22.33" transform="translate(-58.54 365.79) rotate(-28.12)"/><circle class="cls-14" cx="701" cy="299.76" r="18.83" transform="translate(-58.46 366.72) rotate(-28.19)"/><path class="cls-31" d="M701,284.5a18.83,18.83,0,0,1,18.74,17.05,17.58,17.58,0,0,0,.09-1.79,18.83,18.83,0,0,0-37.66,0,17.58,17.58,0,0,0,.09,1.79A18.83,18.83,0,0,1,701,284.5Z"/><circle class="cls-10" cx="701" cy="244.36" r="22.33" transform="translate(335.56 890.55) rotate(-79.73)"/><circle class="cls-14" cx="701" cy="244.36" r="18.83" transform="translate(335.42 890.47) rotate(-79.72)"/><path class="cls-31" d="M701,229.09a18.83,18.83,0,0,1,18.74,17,17.58,17.58,0,0,0,.09-1.79,18.83,18.83,0,0,0-37.66,0,17.58,17.58,0,0,0,.09,1.79A18.83,18.83,0,0,1,701,229.09Z"/><circle class="cls-10" cx="701" cy="188.95" r="22.33"/><circle class="cls-14" cx="701" cy="188.95" r="18.83"/><path class="cls-31" d="M701,173.68a18.83,18.83,0,0,1,18.74,17,17.53,17.53,0,0,0,.09-1.78,18.83,18.83,0,1,0-37.66,0,17.53,17.53,0,0,0,.09,1.78A18.83,18.83,0,0,1,701,173.68Z"/><rect class="cls-4" x="660" y="334.33" width="82" height="44.96" rx="11.67"/><rect class="cls-10" x="669.83" y="370.3" width="10.67" height="4.36"/><rect class="cls-10" x="682.67" y="370.3" width="10.67" height="4.36"/><rect class="cls-10" x="708.67" y="370.3" width="10.67" height="4.36"/><rect class="cls-10" x="721.5" y="370.3" width="10.67" height="4.36"/><circle class="cls-10" cx="701" cy="367.83" r="3.83" transform="translate(-87.6 298.43) rotate(-22.66)"/><line class="cls-32" x1="671.67" y1="334.33" x2="730.33" y2="334.33"/><path class="cls-32" d="M742,367.63a11.66,11.66,0,0,1-11.67,11.66"/><line class="cls-16" x1="649.5" y1="288.24" x2="649.5" y2="157.41"/><polyline class="cls-23" points="655 241 667.67 233 667.67 166.61 699.75 157.41"/><polyline class="cls-23" points="749.21 241 736.54 233 736.54 166.61 704.46 157.41"/><rect class="cls-33" x="660" y="138.5" width="82" height="18.91"/><rect class="cls-3" y="85.88" width="85.23" height="12"/><rect class="cls-3" y="150" width="85.23" height="12"/><rect class="cls-4" x="34.3" y="49.09" width="11.25" height="7.89" rx="1.75" transform="translate(-6.85 5.93) rotate(-7.82)"/><rect class="cls-4" x="68.28" y="47.5" width="7.89" height="11.25" rx="1.75" transform="translate(9.45 117.14) rotate(-81.9)"/><path class="cls-17" d="M79,53.5c-4.34-4.73-23.41-4.4-23.41-4.4s-19.07-.43-23.42,4.28-6.49,28.12-1,32.1c5,3.63,10.48-9.86,13.13-14.69a5.57,5.57,0,0,0,10.13-3.17,5.16,5.16,0,0,0-.05-.79c.73,0,1.19,0,1.19,0s.46,0,1.19,0a6.49,6.49,0,0,0-.06.78,5.57,5.57,0,0,0,10.12,3.23C69.4,75.69,74.83,89.2,79.83,85.6,85.32,81.65,83.3,58.23,79,53.5Z"/><path class="cls-34" d="M43.35,67.59S36.59,82.1,33.54,83.65s-5.35-5.79-5.45-6.09c.41,3.71,1.37,6.71,3,7.92,5,3.63,10.48-9.86,13.13-14.69A4.38,4.38,0,0,1,43.35,67.59Z"/><path class="cls-34" d="M77.41,83.76c-3-1.57-9.73-16.11-9.73-16.11a4.39,4.39,0,0,1-.92,3.2c2.63,4.84,8.06,18.35,13.06,14.75,1.67-1.2,2.64-4.19,3.06-7.91C82.79,78,80.39,85.29,77.41,83.76Z"/><path class="cls-4" d="M48.82,63.53a4.08,4.08,0,1,0,4.07,4.08A4.06,4.06,0,0,0,48.82,63.53Z"/><path class="cls-4" d="M62.23,63.56a4.08,4.08,0,1,0,4.07,4.08A4.08,4.08,0,0,0,62.23,63.56Z"/><path class="cls-4" d="M38.87,53.36a6.53,6.53,0,1,0,6.51,6.55A6.53,6.53,0,0,0,38.87,53.36Z"/><path class="cls-4" d="M73,53.09a6.53,6.53,0,1,0,6.51,6.54A6.52,6.52,0,0,0,73,53.09Z"/><path class="cls-7" d="M43.23,58.3H40.47V55.53a1.14,1.14,0,0,0-1.13-1.13H38.17A1.12,1.12,0,0,0,37,55.53v2.76H34.26a1.14,1.14,0,0,0-1.13,1.13v1.18a1.14,1.14,0,0,0,1.13,1.14H37V64.5a1.14,1.14,0,0,0,1.13,1.13h1.18a1.12,1.12,0,0,0,1.13-1.13V61.74h2.76a1.14,1.14,0,0,0,1.14-1.13V59.44A1.14,1.14,0,0,0,43.23,58.3Z"/><path class="cls-7" d="M78.77,59.84a2.25,2.25,0,1,1-2.24-2.25A2.25,2.25,0,0,1,78.77,59.84Z"/><path class="cls-7" d="M71.74,59.83a2.25,2.25,0,1,1-2.25-2.26A2.26,2.26,0,0,1,71.74,59.83Z"/><path class="cls-7" d="M73,65.11a2.25,2.25,0,1,1,2.25-2.24A2.25,2.25,0,0,1,73,65.11Z"/><path class="cls-7" d="M73,58.62a2.25,2.25,0,1,1,2.26-2.25A2.25,2.25,0,0,1,73,58.62Z"/><path class="cls-7" d="M55.56,49.1s-4.14-.09-9,.28c0,0,1,10.11,1.41,10.17s7.57,0,7.57,0,7.14.08,7.56,0,1.46-10.16,1.46-10.16C59.7,49,55.56,49.1,55.56,49.1Z"/><rect class="cls-7" y="118.33" width="60.09" height="31.66"/><path class="cls-4" d="M720.31,75c-3.69-11.4-11.42-20-21.77-24.33-9-3.71-18.84-3.61-26.43.27-11.52,5.89-17.57,4.22-28.56,1.19-3.11-.86-6.64-1.83-10.77-2.76-15.73-3.54-28.62,9.34-39,19.7-2.08,2.08-4,4.05-5.89,5.72-4,3.67-7.67,5.35-10.79,5A6.14,6.14,0,0,1,573,77.66l-.82.58A7,7,0,0,0,577,80.83c3.43.39,7.33-1.39,11.6-5.27,1.86-1.69,3.83-3.66,5.93-5.76,10.18-10.18,22.84-22.84,38-19.43,4.11.93,7.62,1.9,10.72,2.75,10.87,3,17.42,4.8,29.28-1.26,7.34-3.75,16.91-3.84,25.6-.23,10.08,4.17,17.6,12.59,21.2,23.71,7.17,22.2,14.5,35.05,30.7,35.05v-1C736.12,109.39,728.61,100.72,720.31,75Z"/><path class="cls-17" d="M577.45,95.06a6.57,6.57,0,0,0,.13-1.26,6.43,6.43,0,0,0-5-6.27V74.16a2.57,2.57,0,0,0-5.14,0V87.53a6.43,6.43,0,0,0-5,6.27,6.57,6.57,0,0,0,.13,1.26,11.68,11.68,0,0,0-4.27,9v26.3A11.73,11.73,0,0,0,570,142.14h0a11.73,11.73,0,0,0,11.72-11.73v-26.3A11.68,11.68,0,0,0,577.45,95.06Z"/><path class="cls-22" d="M581.72,130.41v-26.3a11.68,11.68,0,0,0-4.27-9,6.57,6.57,0,0,0,.13-1.26,6.43,6.43,0,0,0-5-6.27l-2.57.76a9.06,9.06,0,0,1,3.57,7.31h-4.71s9,.43,9.43,5.79,0,28.52,0,28.52S578,142.14,570,142.14h0A11.73,11.73,0,0,0,581.72,130.41Z"/><line class="cls-26" x1="558.28" y1="104.11" x2="558.28" y2="129.19"/><line class="cls-26" x1="564.14" y1="95.6" x2="573.57" y2="95.6"/><line class="cls-26" x1="559.64" y1="131.26" x2="578.19" y2="131.26"/><rect class="cls-4" x="543.98" y="113.19" width="52.04" height="6.06" rx="2.87"/><polyline class="cls-35" points="555.99 119.25 586.65 119.25 586.65 115.98"/><path class="cls-17" d="M669.25,46.32,568.61,77.84a2.4,2.4,0,0,1-3-1.57h0a2.39,2.39,0,0,1,1.57-3L667.82,41.75a2.39,2.39,0,0,1,3,1.57h0A2.4,2.4,0,0,1,669.25,46.32Z"/><path class="cls-17" d="M672.32,41a2.39,2.39,0,0,0-3,3.73l80.74,65.14v-6.16Z"/><circle class="cls-36" cx="670.93" cy="41.64" r="8.25"/><circle class="cls-36" cx="570" cy="75.19" r="8.25"/><path class="cls-37" d="M261,438c5.5-31.5-35-109-50.5-119.5s-29,2.3-34,11c-8.71,15.06-16.5,34.83-43.17,1.5-16.36-20.46-7-35.74-7-35.74h0c12.24-9.95,19.7-23.09,19.7-37.51,0-31.07-34.59-56.25-77.25-56.25-30,0-55.94,12.44-68.75,30.61V500H259.33C239.83,493,255.5,469.5,261,438Z"/><path class="cls-30" d="M68.75,200a1.5,1.5,0,0,0,0,3c41.77,0,75.75,24.56,75.75,54.75,0,13.4-6.8,26.31-19.15,36.35a1.5,1.5,0,0,0,1.89,2.33c13.07-10.62,20.26-24.36,20.26-38.68C147.5,225.91,112.17,200,68.75,200Z"/><path class="cls-30" d="M211.34,317.26c-5.59-3.79-11.4-5-17.25-3.69-8.59,2-15.39,9.13-18.89,15.18a1.5,1.5,0,1,0,2.6,1.5c3-5.25,9.3-12,17-13.76,5-1.15,10-.05,14.9,3.25,15.07,10.21,55.19,87.52,49.86,118a1.51,1.51,0,0,0,1.22,1.74l.26,0a1.5,1.5,0,0,0,1.48-1.24C268,406.6,227.75,328.38,211.34,317.26Z"/><path class="cls-38" d="M62.31,289.26a1.5,1.5,0,0,0-2.22,1.32v81a1.5,1.5,0,0,0,1.45,1.5s1.11,0,3,0c12,0,40.29-1.33,45.11-13.69C115.74,343.87,81.61,299.91,62.31,289.26Zm44.56,69.08c-3.39,8.68-24.09,11.78-42.32,11.78H63.09V293.22C82.54,305.74,111.72,345.91,106.87,358.34Z"/><path class="cls-38" d="M34.85,289.29a1.52,1.52,0,0,0-1.49,0c-9.7,5.36-23.15,19.13-33.36,33.48v5.4c9.26-13.91,22.28-28.29,32.58-34.92v76.89H31.12c-10.9,0-22.68-1.11-31.12-3.86v3.16c10.43,3.2,23.83,3.7,31.12,3.7,1.9,0,3,0,3,0a1.5,1.5,0,0,0,1.45-1.5v-81A1.51,1.51,0,0,0,34.85,289.29Z"/><path class="cls-38" d="M0,389.5s53.5,15,91.5,4,66.5-23.5,77.5-4S221.49,436,219,459s-1,34.5,18,41H0Z"/><path class="cls-37" d="M425.67,487h-146a12.34,12.34,0,0,1-12.34-12.33h0a12.35,12.35,0,0,1,12.34-12.34h146A12.34,12.34,0,0,1,438,474.67h0A12.33,12.33,0,0,1,425.67,487Z"/><path class="cls-3" d="M317.17,487h-37.5a12.34,12.34,0,0,1-12.34-12.33h0a12.35,12.35,0,0,1,12.34-12.34h37.5a12.34,12.34,0,0,1,12.33,12.34h0A12.33,12.33,0,0,1,317.17,487Z"/><path class="cls-17" d="M301.33,487s6,5.67,21.67,7.33A124.59,124.59,0,0,1,349.67,500H401s17.38-1.67,17.38-13Z"/><line class="cls-39" x1="336.31" y1="462.5" x2="425.67" y2="462.5"/><path class="cls-40" d="M750,462.79s-28-18-41.5-20.5-47.5,15-47.5,15l13.5,6.5c-30.55,2.7-49,20.46-59.49,36.21H750Z"/><path class="cls-41" d="M658.75,490.37A175,175,0,0,1,707.6,479.8c-.26,6.8-6.7,14.33-13.13,20.2h1.18c6.33-5.88,12.49-13.35,12.7-20.25A126.89,126.89,0,0,1,749.9,484l.2-.72a120.67,120.67,0,0,0-24.44-4.19l.32-.21a54.78,54.78,0,0,0-42.23-25.28v.75a54,54,0,0,1,41.44,24.7c-25.66-1.71-49.53,4.3-66.69,10.59A213.3,213.3,0,0,0,634.88,500h1.66A213.43,213.43,0,0,1,658.75,490.37Z"/><path class="cls-42" d="M750,351.83s-67.37-27.69-107,12.4c0,0,23.56-7.44,36.78,0,0,0-42.16,12.79-50,24l15.08-6.4s-22.11,35.42-7.64,60.8c0,0,7.44-31.27,24.8-38.29,0,0-27.69,42.17,2.07,83.91,0,0,4.54-12,20.66-23.14s26.46-27.28,25.63-41.75c0,0,7.44,24-1.65,37.2,0,0,31,.34,29.89-56.22,0,0,9,24.48,7.72,38.29,0,0,3.72-3,3.72-21.75Z"/><path class="cls-41" d="M696.75,384.36a143.46,143.46,0,0,0-17.69,29.28A212.09,212.09,0,0,0,663,467l.62.08a210.93,210.93,0,0,1,16-53.22c8-17.45,21-37.83,40.91-50.53,2.16,3.75,21.23,38.58,1.92,70.76l.54.32c19.5-32.51.23-67.67-1.94-71.41a76.82,76.82,0,0,1,29-10.89l-.1-.61c-23.23,3.67-40.34,16.85-52.76,32.28C659.34,376.48,647.07,400,647,400.22l.55.28C647.62,400.26,659.61,377.32,696.75,384.36Z"/></g></svg>